<svg xmlns="http://www.w3.org/2000/svg" data-name="Layer 1" viewBox="0 0 512 512"><path fill="#a6f3ba" d="M179.538 227.76c-.97-13.605 7.402-20.613 2.08-33.846-6.074-15.1-21.836-16.461-22.418-27.61-.528-10.135 12.362-11.578 17.11-24.732 7.509-20.806-17.364-37.638-9.937-49.82 6.251-10.25 33.374-11.302 48.527-.128 13.734 10.129 9.923 24.59 25.625 33.405 11.648 6.54 18.21 1.087 25.225 7.726 10.401 9.842-1.823 23.911 6.721 41.522 8.197 16.896 23.899 13.11 33.838 31.106 9.815 17.772 2.53 37.531 1.402 40.483-8.726 22.828-32.8 35.303-53.685 36.967-38.149 3.04-72.66-29.435-74.488-55.073Z"/><path fill="#79ed97" d="M306.309 205.383c-9.94-17.997-25.64-14.21-33.838-31.106-8.544-17.61 3.68-31.68-6.72-41.523-7.016-6.638-13.578-1.186-25.226-7.725-15.702-8.814-11.89-23.277-25.625-33.405-9.396-6.929-23.391-9.153-34.162-7.401a43.273 43.273 0 0 1 19.162 7.401c13.734 10.128 9.923 24.59 25.625 33.405 11.648 6.54 18.21 1.087 25.225 7.725 10.401 9.843-1.823 23.912 6.721 41.523 8.197 16.896 23.899 13.11 33.838 31.106 9.815 17.772 2.53 37.531 1.402 40.483-8.376 21.912-30.892 34.279-51.156 36.708a63.952 63.952 0 0 0 12.47.259c20.886-1.664 44.96-14.14 53.686-36.967 1.128-2.952 8.413-22.71-1.402-40.483Z"/><path fill="#a6f3ba" d="M59.918 223.8c-1.18-18.603 9.864-28.248 2.966-46.313-7.87-20.612-28.56-22.365-29.246-37.612-.624-13.86 16.313-15.922 22.64-33.949 10.006-28.514-22.54-51.365-12.702-68.08 8.28-14.064 43.905-15.693 63.725-.513 17.966 13.76 12.86 33.569 33.419 45.517 15.25 8.864 23.905 1.36 33.071 10.392 13.59 13.391-2.56 32.722 8.537 56.752 10.647 23.055 31.293 17.766 44.219 42.315 12.765 24.242 3.062 51.322 1.56 55.368-11.618 31.286-43.319 48.518-70.756 50.94-50.117 4.422-95.21-39.759-97.433-74.816Z"/><path fill="#79ed97" d="M226.547 192.309c-12.926-24.549-33.572-19.26-44.219-42.315-11.097-24.03 5.053-43.36-8.537-56.752-9.166-9.032-17.82-1.528-33.071-10.392-20.56-11.948-15.453-31.757-33.419-45.517-11.547-8.844-28.453-11.973-42.197-10.27 9.769 1.14 19.634 4.477 27.197 10.27 17.966 13.76 12.86 33.569 33.419 45.517 15.25 8.864 23.905 1.36 33.071 10.392 13.59 13.391-2.56 32.722 8.537 56.752 10.647 23.055 31.293 17.766 44.219 42.315 12.765 24.243 3.062 51.322 1.56 55.368-11.551 31.108-42.956 48.314-70.284 50.89a80.408 80.408 0 0 0 14.528.05c27.437-2.422 59.138-19.654 70.755-50.94 1.503-4.046 11.206-31.125-1.56-55.368Z"/><path fill="#79ed97" d="M183.056 299.743a7.49 7.49 0 0 1-6.056-3.068 603.162 603.162 0 0 1-49.182-79.397 603.087 603.087 0 0 1-38.18-91.838 7.5 7.5 0 1 1 14.278-4.593 588.018 588.018 0 0 0 37.23 89.547A588.08 588.08 0 0 0 189.1 287.81a7.5 7.5 0 0 1-6.044 11.933Z"/><path fill="#79ed97" d="M117.874 186.435a7.506 7.506 0 0 1-7.21-9.58l9.113-31.604a7.5 7.5 0 1 1 14.413 4.156l-9.113 31.604a7.504 7.504 0 0 1-7.203 5.424zm25.64 51.703a7.507 7.507 0 0 1-7.299-9.256l9.938-41.31a7.5 7.5 0 0 1 14.584 3.51l-9.938 41.309a7.504 7.504 0 0 1-7.285 5.747z"/><path fill="#79ed97" d="M125.706 204.106a7.482 7.482 0 0 1-2.626-.477l-31.425-11.748a7.5 7.5 0 0 1 5.253-14.05l31.425 11.749a7.501 7.501 0 0 1-2.627 14.526zm22.77 44.13a7.482 7.482 0 0 1-2.626-.477l-35.978-13.45a7.5 7.5 0 1 1 5.253-14.05l35.978 13.45a7.501 7.501 0 0 1-2.628 14.527z"/><path fill="#a6f3ba" d="M465.223 257.172c-1.695-18.564-14.092-26.395-10.054-45.306 4.606-21.578 24.78-26.492 23.112-41.663-1.516-13.79-18.568-13.224-27.592-30.063-14.273-26.635 14.371-54.221 2.078-69.223-10.344-12.624-45.796-8.754-63.045 9.295-15.636 16.359-7.543 35.147-26.02 50.115-13.706 11.104-23.412 5.021-31.08 15.355-11.368 15.323 7.564 31.94.295 57.39-6.974 24.419-28.187 22.368-37.184 48.613-8.885 25.918 4.869 51.182 6.976 54.949 16.29 29.127 50.265 41.278 77.748 39.45 50.202-3.339 87.962-53.93 84.766-88.912Z"/><path fill="#79ed97" d="M455.169 211.866c4.606-21.578 24.78-26.492 23.112-41.663-1.516-13.79-18.568-13.224-27.592-30.063-14.273-26.635 14.371-54.221 2.078-69.223-5.189-6.333-16.697-8.512-29.056-6.836 6.065.964 11.093 3.22 14.056 6.836 12.293 15.002-16.35 42.588-2.078 69.223 9.024 16.84 26.076 16.272 27.592 30.063 1.667 15.17-18.506 20.085-23.112 41.663-4.038 18.911 8.359 26.742 10.054 45.306 3.154 34.522-33.58 84.241-82.793 88.751a84.967 84.967 0 0 0 13.027.161c50.202-3.338 87.962-53.93 84.766-88.912-1.695-18.564-14.092-26.395-10.054-45.306Z"/><path fill="#79ed97" d="M354.079 351.24a7.503 7.503 0 0 1-6.704-10.853 645.991 645.991 0 0 0 43.47-111.985 644.754 644.754 0 0 0 15.084-66.295 7.5 7.5 0 0 1 14.782 2.55 660.016 660.016 0 0 1-15.436 67.843 661.032 661.032 0 0 1-44.482 114.592 7.5 7.5 0 0 1-6.714 4.149Z"/><path fill="#79ed97" d="M399.695 232.098a7.502 7.502 0 0 1-6.939-4.647l-15.99-38.844a7.5 7.5 0 0 1 13.872-5.71l15.99 38.844a7.504 7.504 0 0 1-6.933 10.357Z"/><path fill="#79ed97" d="M396.197 244.392a7.501 7.501 0 0 1-3.682-14.04l27.65-15.54a7.5 7.5 0 0 1 7.35 13.076l-27.65 15.54a7.47 7.47 0 0 1-3.668.964zm-17.62 51.62a7.501 7.501 0 0 1-3.682-14.04l29.49-16.58a7.5 7.5 0 1 1 7.35 13.076l-29.49 16.58a7.465 7.465 0 0 1-3.668.963z"/><circle cx="314.971" cy="254.453" r="44.471" fill="#f66"/><path fill="#ff4e4e" d="M314.971 209.981a44.38 44.38 0 0 0-15 2.6 44.48 44.48 0 0 1 0 83.743 44.474 44.474 0 1 0 15-86.343Z"/><circle cx="239.971" cy="254.453" r="44.471" fill="#f66"/><path fill="#ff4e4e" d="M239.971 209.981a44.38 44.38 0 0 0-15 2.6 44.48 44.48 0 0 1 0 83.743 44.474 44.474 0 1 0 15-86.343Z"/><path fill="#676e87" d="M138.553 418.165h234.894v41.787a44.548 44.548 0 0 1-44.549 44.548H183.102a44.548 44.548 0 0 1-44.549-44.548v-41.787Z"/><path fill="#595f74" d="M328.447 418.165v41.787a44.548 44.548 0 0 1-44.548 44.548h45a44.548 44.548 0 0 0 44.548-44.548v-41.787Z"/><path fill="#595f74" d="M397.25 258.67H504.5a181.431 181.431 0 0 1-181.44 181.44H188.94A181.442 181.442 0 0 1 7.5 258.67h389.75Z"/><path fill="#4a4f60" d="M459.5 258.67a181.445 181.445 0 0 1-181.445 181.445h45A181.445 181.445 0 0 0 504.5 258.67Z"/></svg>